<?xml version="1.0" encoding="UTF-8"?>
<svg id="Capa_1" xmlns="http://www.w3.org/2000/svg" version="1.1" viewBox="0 0 800 531">
  <!-- Generator: Adobe Illustrator 29.0.0, SVG Export Plug-In . SVG Version: 2.1.0 Build 186)  -->
  <defs>
    <style>
      .st0 {
        fill: #343029;
      }

      .st1 {
        fill: #c3b5aa;
      }

      .st2 {
        fill: #f192b2;
      }
    </style>
  </defs>
  <path class="st2" d="M679.36,158.72c-14.42-27.68-37.17-49.7-64.23-65-1.95-1.11-1.42-3.47.02-4.44-38.94-22.36-85.18-29.08-129.93-21.18-99.47,17.55-134.14,88.12-134.14,88.12-.59-.58-1.15-1.21-1.7-1.85.89,2.31,1.77,4.62,2.66,6.93,1.2,3.14-3.84,4.49-5.03,1.39-3.16-8.23-6.31-16.46-9.47-24.69-.85-2.2-1.63-4.46-2.49-6.68-3.78-4.54-8.58-7.39-15.91-6.22-3.28,3.31-5.76,8.14-7.73,11.35-4.28,7.01-8.56,14.02-12.84,21.03,0,1.04-.74,2.15-1.8,2.61-1.21.94-2.92.45-3.75-.65-23.46-9.76-50.2-10.18-74.04-1.44-1.17.43-2.1,0-2.64-.76-.28.2-.62.32-1.01.39-1.29.45-2.93.04-3.44-1.65-2.73-9.08-6.87-17.64-12.33-25.4-1.15-1.63-2.36-3.21-3.62-4.76-.79-.46-1.63-.9-2.53-1.3-14.21-6.4-28.3,5.3-39.59,20.06-3.15,5.58-5.86,11.41-8.01,17.46-.71,2-3,2.17-4.29,1.22-3.59,6.2-6.49,11.86-8.49,15.85-7.09,14.13-15.34,34.6-20.22,55.64,18.74,4.16,37.2,9.35,55.54,15.44,2.9.96,1.65,5.55-1.26,4.59-18.26-6.07-36.65-11.24-55.3-15.39-1.94,9.38-3.14,18.78-3.22,27.72,4.38-.31,8.77-.59,13.15-.81,14.41-.73,29.54-1.62,43.81,1.09,3.01.57,1.73,5.16-1.26,4.59-13.81-2.62-28.6-1.63-42.54-.92-4.36.22-8.72.5-13.07.8.44,11.38,2.9,21.81,8.3,30.13.86,1.32,1.76,2.61,2.68,3.89,1.02,1.42,2.08,2.82,3.18,4.19,22.51,28.23,60.6,46.75,99.29,56.7,13.39-7.85,27.06-15.34,38.58-25.89,12.88-11.8,23.39-25.94,36.42-37.63,2.49-2.23,6.19,1.44,3.69,3.69-13.86,12.43-24.89,27.72-38.95,39.89-9.9,8.57-21.17,15.16-32.44,21.72,15.77,3.61,31.48,5.83,46.12,6.69,29.69,1.74,58.91,3.89,88.5-.83,5.29-.84,10.48-1.73,15.59-2.62,10.53-7.39,20.46-15.65,29.61-24.76,2.38-2.37,6.07,1.32,3.69,3.69-6.82,6.79-14.08,13.11-21.69,19,26.87-4.86,52.12-9.59,79.9-10.4,14.18-12.59,33.02-20.18,51.09-24.94,18.23-4.8,37.01-7.02,55.73-8.94-4.68-7.43-9.31-14.88-13.57-22.56-16.21-29.23-27.34-65.37-11.44-97.19,1.5-3,6-.36,4.5,2.63-9.33,18.67-8.5,40.67-2.53,60.23,6.36,20.84,18.17,39.44,29.72,57.73,1.15,1.82-.4,3.73-2.25,3.92-10.15,1.02-20.31,2.08-30.41,3.58-17.28,2.55-34.65,6.24-50.73,13.23-7.58,3.29-14.83,7.35-21.53,12.19,2.83,0,5.69.05,8.59.14,69.81,2.25,152.43,13.59,191.44-48.19.54-1.05,1.1-2.09,1.62-3.16,10.6-21.96,15.71-46.63,16.03-70.95.35-27.05-5.46-54.25-17.99-78.29Z"/>
  <path class="st0" d="M92.42,317.02c-5.19,1.45-10.48,2.59-15.82,3.31-5.13.7-10.31.54-15.43,1.19-13.75,1.74-25.94,13.58-27.56,27.45-.86,7.37,1.98,14.04,7.87,18.52,2.67,2.03,5.27-2.5,2.63-4.5-10.24-7.78-4.33-22.45,3.45-29.57,5.35-4.9,11.62-6.72,18.72-6.99,9.81-.38,19.58-2.05,29-4.81,9.57-2.8,18.8-6.73,27.52-11.57-1.1-1.38-2.16-2.77-3.18-4.19-8.62,4.72-17.71,8.5-27.19,11.15Z"/>
  <path class="st1" d="M216.85,153.38c.21-.17.45-.31.74-.42,1.44-.53,2.9-1.01,4.36-1.48-3.37-1.33-5.91-3.14-8.01-5.23.89,2.22,1.71,4.46,2.44,6.73l.46.39Z"/>
  <path class="st1" d="M309.43,129.69c.22-.36.45-.73.69-1.1-8.94,6.48-9.8,19.96-17.87,24.96.7.27,1.39.56,2.09.84,5.03-8.24,10.04-16.49,15.09-24.71Z"/>
  <path class="st0" d="M145.81,162.03c2.16-6.05,4.86-11.88,8.01-17.46,1.46-2.58,2.98-5.12,4.64-7.59,2.74-4.07,5.75-7.94,9.02-11.6,3.01-3.37,6.23-7.16,10.32-9.21,5-2.51,9.16.09,12.74,3.63,1.91,1.89,3.71,3.91,5.41,6,1.26,1.55,2.48,3.14,3.62,4.76,5.46,7.76,9.6,16.32,12.33,25.4.51,1.69,2.14,2.1,3.44,1.65.39-.06.73-.19,1.01-.39.54.76,1.46,1.19,2.64.76,23.84-8.74,50.58-8.32,74.04,1.44.83,1.1,2.54,1.59,3.75.65,1.07-.46,1.81-1.57,1.8-2.61,4.28-7.01,8.56-14.02,12.84-21.03,1.96-3.22,4.44-8.04,7.73-11.35,1.96-1.98,4.21-3.41,6.81-3.64,3.65-.32,5.84,2.67,7.28,5.61.67,1.38,1.26,2.81,1.82,4.26.86,2.22,1.65,4.48,2.49,6.68,3.16,8.23,6.31,16.46,9.47,24.69,1.19,3.1,6.23,1.75,5.03-1.39-.89-2.31-1.77-4.62-2.66-6.93-2.78-7.24-5.55-14.48-8.33-21.72-2.6-6.78-5.49-16.35-14.38-16.44-7.35-.08-12.86,6.61-16.55,12.38-.24.37-.47.74-.69,1.1-5.05,8.22-10.06,16.47-15.09,24.71-.7-.28-1.39-.58-2.09-.84-22.45-8.49-47.39-9.33-70.3-2.07-1.46.46-2.92.95-4.36,1.48-.29.11-.53.26-.74.42l-.46-.39c-.73-2.28-1.55-4.52-2.44-6.73-2.01-4.98-4.39-9.8-7.24-14.35-4.29-6.84-9.61-14.19-16.2-18.99-7.1-5.17-14.66-2.78-20.76,2.66-6.17,5.51-11.47,12.31-16.05,19.17-5.38,8.05-9.66,16.78-12.91,25.9-.41,1.15,0,2.06.74,2.61,1.29.95,3.58.78,4.29-1.22Z"/>
  <path class="st0" d="M374.25,207.65c-29.44,13.13-57.11,29.93-82.72,49.48-2.23,1.71-.03,5.55,2.23,3.82,25.61-19.55,53.28-36.35,82.72-49.48,2.6-1.16.35-4.97-2.23-3.82Z"/>
  <path class="st0" d="M374.2,271.15c-13.4-.24-26.76-1.72-40.14-2.32-12.89-.58-27.07-1.49-39.56,2.39-2.71.84-1.56,5.12,1.18,4.27,12.36-3.83,26.45-2.79,39.2-2.19,13.11.61,26.21,2.05,39.33,2.29,2.85.05,2.85-4.38,0-4.43Z"/>
  <path class="st0" d="M168.35,250.18c-18.34-6.09-36.81-11.29-55.54-15.44-11.57-2.57-23.25-4.74-35.07-6.48-2.99-.44-4.29,4.14-1.26,4.59,11.91,1.74,23.66,3.94,35.32,6.53,18.65,4.15,37.04,9.32,55.3,15.39,2.91.97,4.16-3.63,1.26-4.59Z"/>
  <path class="st0" d="M164.25,271.96c2.99.57,4.27-4.02,1.26-4.59-14.26-2.71-29.4-1.82-43.81-1.09-4.38.22-8.77.5-13.15.81-10.28.73-20.55,1.73-30.75,3.16-3.02.42-1.73,5.01,1.26,4.59,9.8-1.37,19.67-2.31,29.56-3,4.36-.31,8.72-.58,13.07-.8,13.95-.71,28.73-1.7,42.54.92Z"/>
  <path class="st0" d="M181.25,228.88c-3.22-.96-4.6,4.07-1.39,5.03,7.29,2.17,13.99,6.74,18.54,12.85.84,1.13,2.26,1.7,3.57.93,1.11-.65,1.78-2.43.93-3.57-5.41-7.27-12.94-12.65-21.65-15.24Z"/>
  <path class="st0" d="M275.88,229.57c-8.68,2.88-16.14,8.84-20.77,16.74-1.7,2.9,2.8,5.52,4.5,2.63,3.94-6.71,10.34-11.91,17.65-14.34,1.34-.44,2.21-1.8,1.82-3.21-.36-1.31-1.86-2.26-3.21-1.82Z"/>
  <path class="st0" d="M300.77,306.93c2.5-2.24-1.19-5.92-3.69-3.69-13.03,11.69-23.54,25.83-36.42,37.63-11.52,10.55-25.19,18.04-38.58,25.89-.22.13-.45.26-.68.39-7.75,4.56-15.68,7.6-24.56,9.19-8.86,1.59-17.91,1.91-26.89,2.08-7.38.14-15.18-.59-22.2,2.12-5.79,2.24-10.79,6.1-14.55,11.03-7.73,10.13-9.36,24.87,1.68,33.25,2.67,2.03,5.27-2.5,2.63-4.5-9.03-6.85-5.41-19.74.99-27.05,3.88-4.44,8.99-7.7,14.78-8.95,3.57-.77,7.33-.56,10.96-.6,4.14-.06,8.28-.11,12.41-.27,8.46-.31,16.97-.99,25.25-2.83,8.3-1.84,15.65-5.19,22.95-9.47,1.5-.88,3.01-1.76,4.52-2.63,11.27-6.56,22.53-13.15,32.44-21.72,14.06-12.17,25.09-27.45,38.95-39.89Z"/>
  <path class="st0" d="M153.74,401.36c-2.63,3.12-3.6,7.25-3.83,11.24-.22,3.77.26,8.06,2.35,11.3.76,1.18,2.31,1.67,3.57.93,1.18-.69,1.7-2.38.93-3.57-.18-.28-.35-.57-.5-.87l-.13-.27-.12-.29c-.27-.73-.47-1.48-.62-2.23-.05-.24-.09-.48-.13-.72l-.02-.1c-.05-.4-.09-.8-.11-1.21-.06-.9-.06-1.81-.02-2.72.02-.43.05-.87.1-1.3l.06-.52.05-.32c.15-.82.32-1.63.56-2.43.11-.38.24-.76.38-1.13l.09-.23.19-.41c.16-.32.33-.64.52-.94l.29-.43.02-.04.06-.07c.91-1.08,1.06-2.63,0-3.69-.93-.93-2.77-1.08-3.69,0Z"/>
  <path class="st0" d="M409.19,347.01c-9.15,9.11-19.08,17.37-29.61,24.76-21.95,15.4-46.57,26.95-72.45,34.18-19,5.31-38.63,8.29-58.36,8.77-7.65.19-15.44-.74-23.05.02-4.99.5-9.8,1.87-14.68,2.96-4.3.96-8.64,1.75-13,2.41-2.65.4-6.02.28-8.44,1.42-1.32.62-2.36,1.1-3.86,1.15-7.81.26-13-7.24-11.49-14.49.68-3.27-4.34-4.67-5.03-1.39-1.56,7.47,1.13,14.91,7.91,18.79,2.73,1.56,5.96,2.46,9.11,2.28,1.55-.09,3.05-.42,4.48-1.05,1.9-.84,3.76-.99,5.84-1.27,7.58-1.04,14.99-2.64,22.43-4.36,5.37-1.25,10.46-1.51,15.96-1.32,41.88,1.43,84.04-8.35,121.18-27.71,12.33-6.43,24.06-13.97,35.06-22.47,7.61-5.88,14.87-12.21,21.69-19,2.38-2.37-1.31-6.06-3.69-3.69Z"/>
  <path class="st0" d="M60.33,344.02c-2.63,3.12-3.6,7.25-3.84,11.24-.22,3.77.26,8.06,2.35,11.3.76,1.18,2.31,1.67,3.57.93,1.18-.69,1.7-2.38.94-3.57-.18-.28-.35-.57-.5-.87l-.13-.27-.12-.29c-.27-.73-.47-1.48-.62-2.23-.05-.24-.09-.48-.13-.72l-.02-.1c-.05-.4-.09-.81-.11-1.21-.06-.9-.07-1.81-.02-2.72.02-.43.05-.87.1-1.3l.06-.52.05-.32c.15-.82.32-1.63.56-2.43.11-.38.24-.76.38-1.13l.09-.22.19-.41c.16-.32.33-.64.52-.94l.29-.43.02-.04.06-.07c.91-1.08,1.06-2.63,0-3.69-.93-.93-2.77-1.08-3.68,0Z"/>
  <path class="st0" d="M139.7,362.46c3.35.13,3.35-5.08,0-5.21-10.44-.4-20.22,3-30.4,4.78-2.02.35-4.04.67-6.07.96-2.37.34-5.11.27-7.24,1.35-2.23,1.13-4.49,1.27-6.92.58-6.27-1.8-9.54-7.78-8.23-14.05.68-3.27-4.34-4.67-5.03-1.39-1.21,5.79-.05,11.66,4.2,15.95,3.41,3.44,8.47,5.54,13.33,5.07,2.54-.24,4.6-1.59,7.07-1.91,3.95-.51,7.88-1.09,11.8-1.8,4.78-.87,9.48-2.05,14.21-3.12,4.41-1,8.75-1.37,13.27-1.2Z"/>
  <path class="st0" d="M551.94,333.75c10.1-1.49,20.25-2.55,30.41-3.58,1.85-.19,3.4-2.11,2.25-3.92-11.55-18.28-23.36-36.88-29.72-57.73-5.97-19.56-6.8-41.56,2.53-60.23,1.5-2.99-3-5.63-4.5-2.63-15.9,31.82-4.78,67.96,11.44,97.19,4.26,7.68,8.89,15.13,13.57,22.56-18.72,1.92-37.5,4.14-55.73,8.94-18.07,4.76-36.91,12.35-51.09,24.94-.49.43-1.02.83-1.5,1.27-3.46,3.23-6.5,7.54-6.42,12.47.08,4.65,2.58,8.73,6.98,10.35,3.15,1.16,4.51-3.88,1.39-5.03-3.68-1.35-3.66-6.34-2.17-9.27,1.97-3.88,5.9-6.72,9.31-9.25.32-.24.66-.45.98-.68,6.7-4.84,13.95-8.9,21.53-12.19,16.08-6.99,33.46-10.68,50.73-13.23Z"/>
  <path class="st0" d="M490.92,383.89l-.31-.11-.35-.14c-.35-.17-.68-.37-1-.58l-.23-.16-.31-.26c-.29-.26-.56-.54-.81-.83l-.23-.28-.19-.27c-.22-.32-.42-.66-.61-1.01l-.26-.53c-.06-.12-.25-.71-.05-.1-.12-.37-.27-.74-.38-1.12-.11-.38-.2-.76-.27-1.15l-.05-.37-.03-.3c-.03-.39-.03-.78-.02-1.17l.04-.58v-.06s0-.02,0-.02c.08-.38.15-.76.25-1.13l.15-.46.14-.35.13-.27.28-.51.32-.49.06-.09.08-.08c.91-1.08,1.06-2.63,0-3.69-.93-.93-2.77-1.08-3.69,0-5.75,6.83-2.62,18.36,5.95,21.14,1.3.42,2.9-.49,3.21-1.82.33-1.43-.43-2.75-1.82-3.2Z"/>
  <path class="st0" d="M764.98,280.86c-1.63-12.46-4.46-24.73-9.33-36.33-8.68-20.66-23.7-37.4-42.96-48.79-5.13-3.03-10.47-5.66-15.94-8.01l-.52-.17c-1.85-6.64-4.1-13.17-6.78-19.53-12.43-29.54-33.73-54.3-60.41-71.94-3.68-2.43-7.45-4.72-11.29-6.89-.97-.55-1.9-.41-2.61.06-1.44.96-1.97,3.33-.02,4.44,27.06,15.3,49.8,37.31,64.23,65,12.53,24.05,18.34,51.25,17.99,78.29-.32,24.32-5.43,48.99-16.03,70.95-.52,1.07-1.07,2.11-1.62,3.16-13.69,26.44-36.38,47.24-63.61,59.33-15.66,6.95-32.59,11.06-49.56,13.16-8.65,1.07-17.36,1.65-26.07,1.85-8.17.18-20.72,1.83-26.73-5.06-2.43-2.79-3.88-7.53-1.29-10.68,2.11-2.57-1.55-6.28-3.69-3.69-5.49,6.69-2.33,16.31,4.51,20.74,8.09,5.25,19.28,4.11,28.46,3.87,18.23-.49,36.54-2.65,54.14-7.53,34.08-9.44,64.59-30.09,83.34-60.45,13.2-21.38,20.29-46.4,22.58-71.3.97-10.56,1.03-21.22.14-31.8,16.42,17.77,22.73,43.12,20.88,66.98-2.13,27.42-16.09,52.51-35.37,71.67-21.65,21.52-49.67,35.21-78.65,43.91-14.35,4.31-28.99,6.98-43.59,10.23-13.35,2.97-26.8,7.09-37.61,15.79-5.1,4.1-9.93,9.49-11.28,16.09-1.3,6.34.83,12.66,4.82,17.61,9.49,11.77,25.86,12.16,39.72,11.54,29.5-1.31,58.3-9.5,84.92-22.06,26.57-12.53,51.22-29.41,73.1-48.99,10.8-9.67,20.86-20.3,28.92-32.39,8.55-12.83,14.25-27.25,16.83-42.45,2.62-15.42,2.39-31.17.36-46.65ZM761.28,308.52c-.47,15.39-3.43,30.86-10.05,44.84-6.15,12.99-15,24.46-24.98,34.73-20.07,20.62-44.11,38.07-69.37,51.77-25.32,13.74-53.05,23.71-81.75,27.14-6.98.83-14.02,1.32-21.06,1.35-7.65.04-15.78-.53-22.57-4.41-5.52-3.16-10.28-9-10.39-15.6-.12-7.08,5.39-12.81,10.62-16.86,10.81-8.37,24.44-11.89,37.57-14.69,14.38-3.07,28.74-5.89,42.82-10.23,27.71-8.54,54.46-21.61,75.79-41.56,19.25-17.99,34.13-41.58,38.77-67.78,4.32-24.41.46-51.33-13.61-72.1-3.37-4.97-7.3-9.54-11.75-13.57l-.27-.2c-.77-5.87-1.82-11.7-3.19-17.46,18.86,8.73,35.5,21.54,46.39,39.57,13.35,22.11,17.81,49.54,17.03,75.05Z"/>
  <path class="st0" d="M247.2,281.43c-.29.07-.58.13-.87.19l-.14.02-.39.03c-.5.03-1.01.03-1.52,0l-.37-.04-.13-.02c-.28-.06-.56-.11-.84-.18-.49-.12-.97-.28-1.44-.46l-.12-.05-.37-.17-.58-.3c-.52-.28-1.01-.6-1.49-.94-.35-.25.04.04-.27-.21-.23-.19-.45-.38-.67-.58-.41-.38-.8-.77-1.17-1.19-.82-.93-1.51-2.04-2.04-3.24.08-.7.12-1.4.06-2.1-.04-.47-.14-.92-.24-1.36h0c1.11-.63,2.23-1.55,3.45-2.62,1.39-1.23,4.89-4.53,4.36-7.05-.26-1.24-1.23-1.43-2.28-1.59-1.38-.22-2.77-.41-4.16-.56-.52-.06-1.05-.11-1.57-.16-1.84-.17-4.41-.16-6.26-.18-1.57-.02-3.22-.3-4.73.27-1.88.72-2.11,2.53-1.46,4.48.87,2.61,4.09,5.86,6.25,7.22.52.33,1.01.56,1.49.74h0c.04.5.12,1,.2,1.49.11.64.26,1.27.47,1.89-.16.6-.37,1.25-.56,1.64-.54,1.11-1.07,1.86-1.88,2.64-.76.73-1.85,1.37-3.03,1.79-1.47.52-3,.79-4.56.86-3.3.15-6.56-.4-9.79-1-1.13-.21-2.29.31-2.61,1.48-.28,1.03.35,2.4,1.48,2.61,6.19,1.15,12.9,2.19,18.77-.78,1.95-.99,3.58-2.61,4.76-4.52,2.11,2.74,5.02,4.9,8.23,5.89,2.32.72,4.8.76,7.15.16,2.65-.68,1.52-4.77-1.13-4.1Z"/>
  <path class="st0" d="M322.41,148c.57-.63,1.18-1.21,1.82-1.76.07-.06.09-.08.1-.09.02-.01.04-.03.12-.08l.44-.3c.32-.21.65-.41,1-.58.1-.05.33-.14.33-.14l.41-.14.55-.12c-.53.12-.03.02.11.02.18,0,.61.14.09-.01l.33.09.19.11-.08-.08.23.21c.07.06.06.04.06.02,0,.02.03.06.08.13l.34.6s.3.65.15.29c.11.24.2.49.3.73.41,1,.82,1.99,1.23,2.99.84,2.03,1.68,4.07,2.52,6.1.45,1.1,1.54,2.01,2.81,1.6,1.06-.34,2.09-1.63,1.6-2.81-.96-2.34-1.93-4.67-2.89-7.01-.96-2.33-1.68-5.13-3.88-6.62-3.86-2.61-8.61.74-11.2,3.62-.8.89-.94,2.37,0,3.24.87.8,2.38.95,3.24,0Z"/>
  <path class="st0" d="M179.79,135.85c.41-.26.67-.41,1.12-.48-.25.04.38,0,.45,0-.28-.04.39.19.1.06l.45.28s.29.27.3.28c.32.32.62.66.92,1,1.33,1.51,2.93,3.06,5.12,2.83,1.23-.13,2.29-.96,2.29-2.29,0-1.14-1.05-2.41-2.29-2.29l-.34.02-.17-.09c-.06-.03-.07-.03-.09-.04-.01-.02-.02-.04-.08-.1l-.45-.45c-.67-.7-1.25-1.49-1.99-2.13-2.24-1.93-5.11-2.13-7.64-.56-2.45,1.52-4.12,4-5.67,6.38-1.6,2.45-2.97,5.04-4.12,7.73-.49,1.13-.34,2.45.82,3.13.96.56,2.64.32,3.13-.82,1.07-2.48,2.32-4.88,3.76-7.16,1.18-1.86,2.47-4.11,4.39-5.3Z"/>
</svg>